<svg xmlns="http://www.w3.org/2000/svg" viewBox="-58 -58 628 628">
  <style>
    line {
      stroke: black;
      stroke-width: 3px;
    }
    path {
      stroke: black;
      stroke-width: 5px;
      fill: steelblue
    }
  </style>
  <!-- fill background to see what it looks like -->
  <!-- <rect x="-58" y="-58" width="628" height="628" fill="beige" /> -->

  <rect x="-14" y="-14" height="540" width="540" fill="white" stroke="black" stroke-width="10px"/>

  <line x1="166" y1="-14" x2="166" y2="526" />

  <line x1="346" y1="-14" x2="346" y2="526" />

  <line y1="166" x1="-14" y2="166" x2="526" />

  <line y1="346" x1="-14" y2="346" x2="526" />

  <!-- in between lines would be at 46 106 226 286 406 466 -->

<!--! Font Awesome Free 6.4.2 by @fontawesome - https://fontawesome.com License - https://fontawesome.com/license (Commercial License) Copyright 2023 Fonticons, Inc. --><path d="M403.8 34.4c12-5 25.7-2.2 34.9 6.9l64 64c6 6 9.4 14.1 9.4 22.6s-3.4 16.6-9.4 22.6l-64 64c-9.2 9.2-22.9 11.9-34.9 6.9s-19.8-16.6-19.8-29.6V160H352c-10.1 0-19.6 4.7-25.6 12.8L284 229.3 244 176l31.2-41.6C293.3 110.2 321.8 96 352 96h32V64c0-12.9 7.8-24.6 19.8-29.6zM164 282.7L204 336l-31.2 41.6C154.7 401.8 126.2 416 96 416H32c-17.7 0-32-14.3-32-32s14.3-32 32-32H96c10.1 0 19.6-4.7 25.6-12.8L164 282.7zm274.6 188c-9.2 9.2-22.9 11.9-34.9 6.9s-19.8-16.6-19.8-29.6V416H352c-30.2 0-58.7-14.2-76.8-38.4L121.6 172.8c-6-8.1-15.5-12.8-25.6-12.8H32c-17.7 0-32-14.3-32-32s14.3-32 32-32H96c30.2 0 58.7 14.2 76.8 38.4L326.4 339.2c6 8.1 15.5 12.8 25.6 12.8h32V320c0-12.9 7.8-24.6 19.8-29.6s25.7-2.2 34.9 6.9l64 64c6 6 9.4 14.1 9.4 22.6s-3.4 16.6-9.4 22.6l-64 64z"/></svg>